<svg width="1000" height="270" viewBox="0 0 1000 270" fill="none" xmlns="http://www.w3.org/2000/svg">
<rect width="1000" height="270" rx="80" fill="white"/>
<path d="M927 79.1807V102.231H893.417V190.921H867.466V102.231H833.883V79.1807H927Z" fill="black"/>
<path d="M785.7 133.317L827 191H794.605L769.579 154.585L744.092 191H714L755.3 133.929L715.996 79H748.084L771.268 112.661L794.758 79H825.004L785.7 133.317Z" fill="black"/>
<path d="M656.467 145.889V168.329H706.994V190.921H630.363V79.1807H705.162V101.62H656.467V123.602H700.125V145.889H656.467Z" fill="black"/>
<path d="M623.094 79.1807V102.231H589.51V190.921H563.56V102.231H529.977V79.1807H623.094Z" fill="black"/>
<path d="M498.894 146.958V79.1807H522.708V190.921H501.794L451.114 122.992V190.921H427.301V79.1807H448.214L498.894 146.958Z" fill="black"/>
<path d="M310.733 134.855C310.733 123.05 313.125 112.771 317.908 104.019C322.793 95.2673 329.408 88.6015 337.753 84.0219C346.098 79.3406 355.307 77 365.382 77C375.457 77 384.617 79.3406 392.86 84.0219C401.205 88.6015 407.819 95.2673 412.704 104.019C417.589 112.771 420.032 123.05 420.032 134.855C420.032 146.762 417.589 157.091 412.704 165.843C407.819 174.595 401.205 181.312 392.86 185.993C384.617 190.572 375.457 192.862 365.382 192.862C355.307 192.862 346.098 190.572 337.753 185.993C329.408 181.413 322.793 174.748 317.908 165.996C313.125 157.142 310.733 146.762 310.733 134.855ZM338.363 134.855C338.363 141.673 339.483 147.677 341.722 152.868C343.96 158.058 347.166 162.078 351.339 164.927C355.511 167.675 360.192 169.049 365.382 169.049C370.674 169.049 375.356 167.675 379.426 164.927C383.599 162.078 386.804 158.058 389.043 152.868C391.384 147.677 392.554 141.673 392.554 134.855C392.554 128.138 391.384 122.236 389.043 117.147C386.804 111.957 383.599 107.988 379.426 105.24C375.356 102.391 370.674 100.966 365.382 100.966C360.192 100.966 355.511 102.34 351.339 105.088C347.166 107.836 343.96 111.804 341.722 116.995C339.483 122.083 338.363 128.036 338.363 134.855Z" fill="black"/>
<path d="M259.654 168.896C264.742 168.896 269.118 167.522 272.782 164.774C276.446 162.027 279.397 158.109 281.636 153.02L303.465 165.843C301.837 170.728 299.038 175.206 295.069 179.276C291.202 183.347 286.266 186.654 280.262 189.199C274.258 191.641 267.592 192.862 260.265 192.862C250.19 192.862 240.98 190.471 232.635 185.688C224.29 180.904 217.675 174.137 212.79 165.385C207.905 156.531 205.463 146.354 205.463 134.855C205.463 123.355 207.905 113.229 212.79 104.477C217.675 95.6234 224.29 88.8559 232.635 84.1746C240.98 79.3915 250.19 77 260.265 77C267.592 77 274.258 78.2721 280.262 80.8163C286.266 83.2587 291.202 86.5153 295.069 90.586C299.038 94.6566 301.837 99.1344 303.465 104.019L281.636 116.842C279.397 111.754 276.446 107.836 272.782 105.088C269.118 102.34 264.742 100.966 259.654 100.966C254.769 100.966 250.241 102.34 246.068 105.088C241.997 107.734 238.792 111.652 236.451 116.842C234.11 121.93 232.94 127.935 232.94 134.855C232.94 141.775 234.11 147.83 236.451 153.02C238.792 158.21 241.997 162.179 246.068 164.927C250.241 167.573 254.769 168.896 259.654 168.896Z" fill="black"/>
<path d="M212.566 191.125H193.575L147.289 99.0001H137.03L91.9922 191.125H73L127.729 79.1807H156.323L212.566 191.125Z" fill="black"/>
<path d="M169.389 157.687L186.203 191.125H174.572L162.876 167.864H122.172L110.799 191.125H99.1689L115.517 157.687H169.389ZM148.067 114.896L132.122 147.51H120.492L142.17 103.169L148.067 114.896Z" fill="black"/>
</svg>
